<?xml version="1.0" encoding="utf-8"?>
<!-- Generator: Adobe Illustrator 25.1.0, SVG Export Plug-In . SVG Version: 6.00 Build 0)  -->
<svg version="1.1" id="Layer_1" xmlns="http://www.w3.org/2000/svg" xmlns:xlink="http://www.w3.org/1999/xlink" x="0px" y="0px"
	 viewBox="0 0 349 278" style="enable-background:new 0 0 349 278;" xml:space="preserve">
<style type="text/css">
	.st0{fill:#50B2E4;}
	.st1{fill:#231F20;}
	.st2{fill:#FFFFFF;}
	.st3{fill:#D1D3D4;}
</style>
<g id="_268_party_flatline">
	<path class="st0" d="M280.1,245.7l-6.2-59.9l33.1-19.4c0,0,0-32.1-20.1-38.2c-14.8-4.6-44.8-5.2-44.8-5.2
		c-16.7-2.6-79.5,2.4-82.7,11.5c-3,8.5,10.3,99.7,12,111.1L280.1,245.7z"/>
	<path class="st1" d="M178.9,243L178.9,243c-0.3,0-0.5-0.3-0.5-0.5c0-0.7,2.7-66.8-3-79.2c-0.1-0.3,0-0.6,0.2-0.7s0.6,0,0.7,0.2
		c5.9,12.5,3.3,76.9,3.2,79.6C179.5,242.7,179.2,243,178.9,243C178.9,243,178.9,243,178.9,243z"/>
	<path class="st2" d="M140.8,64c-6.5-6.3-25.8-16.1-32.8-5.2c-0.2,0.5-0.6,0.9-1,1.2c-0.8,0.4-1.7,0.4-2.5,0.3
		c-10.7-0.7-18.4,16-20.3,24.3c-2.4,10.2-4.7,19.5-10.3,28.5c-3.4,5.4-8.4,10.2-10.8,16.2c-2.2,5.9-3.3,12.1-3,18.4
		c0.1,5.2,1.2,10.4,3.3,15.2c4.5,10,14.1,17.1,24.6,20.3s21.7,3,32.5,1.3c10.3-1.5,20.6-4.4,29-10.5c8.4-6.1,14.7-15.8,14.5-26.2
		c-0.1-10.2-5.9-19.1-9.3-28.4s-3.6-18.6-2.7-28.2C152.8,80.6,148.5,71.4,140.8,64z"/>
	<path class="st1" d="M105.9,186.2c-6.1,0.1-12.3-0.8-18.1-2.6c-11.5-3.6-20.6-11.1-24.9-20.6c-2.1-4.9-3.2-10.1-3.3-15.4
		c-0.2-6.3,0.8-12.7,3.1-18.6c1.5-3.9,4.1-7.2,6.6-10.5c1.4-1.9,2.9-3.8,4.2-5.8c5.4-8.7,7.8-17.6,10.3-28.4
		c1.9-8,9.7-25.4,20.8-24.7h0.3c0.6,0.1,1.3,0.1,1.8-0.2c0.3-0.2,0.5-0.5,0.7-0.9l0.1-0.2c1.8-2.9,4.9-4.7,8.3-5
		c8.6-1,20.2,5.3,25.3,10.2l0,0c8.3,8,12.1,17.3,11.2,27.6c-1,11.4-0.2,20.1,2.7,28c1,2.7,2.2,5.4,3.3,8c2.9,6.5,5.9,13.2,6,20.6
		c0.1,9.7-5.5,19.9-14.7,26.6c-7.4,5.3-16.6,8.7-29.2,10.6C115.7,185.7,110.8,186.2,105.9,186.2z M103.9,60.7
		c-10.1,0-17.3,16.2-19.1,23.9c-2.5,10.8-4.9,19.8-10.4,28.7c-1.3,2-2.8,4-4.2,5.9c-2.5,3.2-5,6.5-6.5,10.3c-2.2,5.8-3.3,12-3,18.2
		c0.1,5.2,1.2,10.3,3.2,15.1c4.1,9.1,13.1,16.6,24.2,20c9.1,2.8,19.6,3.2,32.3,1.3c12.4-1.9,21.5-5.2,28.7-10.4
		c9-6.5,14.4-16.3,14.3-25.7c-0.1-7.1-3-13.8-5.9-20.2c-1.2-2.6-2.4-5.3-3.4-8c-3-8.1-3.8-16.8-2.8-28.4c0.9-10-2.7-19-10.9-26.8
		c-4.9-4.8-16.2-10.8-24.5-9.9c-3.1,0.2-5.9,1.9-7.6,4.5l-0.1,0.2c-0.3,0.5-0.6,0.9-1,1.2c-0.8,0.4-1.6,0.5-2.5,0.4h-0.3L103.9,60.7
		z"/>
	<path class="st2" d="M137.8,128.4c0,0,47.3-21.6,87.7-22.7c15.6-0.4,49.8,7,55.8,10.4l0.8,12.5c0,0-65.3-2-93.4,6.3
		c-18.1,5.3-36.8,28.3-36.8,28.3L137.8,128.4z"/>
	<path class="st1" d="M151.7,163.6L151.7,163.6c-0.2,0-0.4-0.1-0.4-0.3l-14-34.7c-0.1-0.2,0-0.5,0.3-0.6
		c0.5-0.2,47.8-21.6,87.8-22.8c15.5-0.4,49.8,6.9,56,10.5c0.1,0.1,0.2,0.2,0.3,0.4l0.8,12.5c0,0.1,0,0.3-0.1,0.4
		c-0.1,0.1-0.2,0.2-0.4,0.2c-0.6,0-65.6-1.9-93.2,6.2c-17.7,5.2-36.4,27.9-36.6,28.1C152.1,163.6,151.9,163.6,151.7,163.6z
		 M138.4,128.6l13.5,33.5c3.2-3.8,20.2-23,36.5-27.8c26.5-7.8,86.6-6.5,93-6.3l-0.8-11.7c-6.6-3.5-40.4-10.7-55.3-10.2
		C187.7,107.2,143.3,126.5,138.4,128.6z"/>
	<path class="st0" d="M84.1,200.1l11.3,45.6h81.2l-7.9-80c0,0-17.8-28.1-20.1-43.4l-74,19.1C74.6,141.4,89.5,172.9,84.1,200.1z"/>
	<path class="st2" d="M129.1,120.3l4.1,17.1c0,0-0.3,8.4-12.4,8.5c-12.1,0.1-15.8-7.3-15.8-7.3l-6.6-32.2c0,0,15.5-14,8.4-31.8
		c0,0,10.5,12.7,27,6.3c0,0,4.3,16.4,5.2,25.5S129.1,120.3,129.1,120.3z"/>
	<path class="st1" d="M120.5,146.4c-12.1,0-15.8-7.3-16-7.6c0,0,0-0.1,0-0.1l-6.6-32.2c0-0.2,0-0.4,0.2-0.5
		c0.2-0.1,15.2-14,8.3-31.2c-0.1-0.2,0-0.5,0.2-0.6c0.2-0.1,0.5-0.1,0.6,0.1c0.1,0.1,10.5,12.4,26.4,6.2c0.1-0.1,0.3-0.1,0.4,0
		c0.1,0.1,0.2,0.2,0.3,0.3c0,0.2,4.4,16.5,5.2,25.6c0.8,8.4-7.9,13.2-9.9,14.2l4.1,16.7c0,0,0,0.1,0,0.1c0,0.1-0.5,8.9-12.9,9
		L120.5,146.4z M105.5,138.4c0.4,0.6,4.1,7,15,7h0.2c11-0.1,11.9-7.1,11.9-7.9l-4.1-17.1c-0.1-0.2,0.1-0.5,0.3-0.6
		c0.1,0,10.4-4.6,9.6-13.4c-0.7-8.1-4.3-22-5-24.9c-8.7,3.3-18.6,1.3-25.4-5.1c4.8,15.7-7.3,28.3-9.1,30L105.5,138.4z"/>
	<path class="st2" d="M103.6,104.1c-1.9-3.5-7.1-5.5-10.8-3.9c-4.8,2-3.3,7.6-0.9,10.8c3.1,4.1,8.9,4.9,13,1.8c0,0,0.1-0.1,0.1-0.1"
		/>
	<path class="st1" d="M99.4,115.2c-0.4,0-0.8,0-1.2-0.1c-2.6-0.3-5-1.7-6.6-3.8c-1.5-1.9-2.9-5.2-2.2-8.1c0.5-1.6,1.7-3,3.3-3.6
		c3.9-1.6,9.4,0.4,11.4,4.1c0.1,0.2,0,0.5-0.2,0.7c0,0,0,0,0,0c-0.2,0.1-0.6,0-0.7-0.2c0,0,0,0,0,0c-2.1-3.5-6.3-5-10.1-3.7
		c-1.3,0.5-2.3,1.5-2.7,2.9c-0.6,2.3,0.6,5.3,2,7.2c2.9,3.9,8.5,4.6,12.3,1.7c0,0,0.1-0.1,0.1-0.1c0.2-0.2,0.5-0.1,0.7,0.1
		c0.2,0.2,0.1,0.5-0.1,0.7l0,0C103.7,114.5,101.5,115.2,99.4,115.2z"/>
	<path class="st2" d="M121.9,94.1c0,0,8.5,7.1,7.5,9.1s-5.2,2-5.2,2"/>
	<path class="st1" d="M124.3,105.7c-0.3,0-0.5-0.2-0.5-0.5c0-0.3,0.2-0.5,0.5-0.5c1.1,0,4.1-0.4,4.8-1.8c0.5-0.9-3.4-5.1-7.4-8.5
		c-0.2-0.2-0.2-0.5-0.1-0.7c0.2-0.2,0.5-0.2,0.7-0.1c2,1.7,8.7,7.6,7.6,9.7S124.8,105.7,124.3,105.7L124.3,105.7z"/>
	<ellipse transform="matrix(0.9922 -0.1246 0.1246 0.9922 -10.3481 16.832)" class="st1" cx="129.3" cy="91.1" rx="1.4" ry="3.3"/>
	<ellipse transform="matrix(0.9922 -0.1246 0.1246 0.9922 -10.6971 15)" class="st1" cx="114.5" cy="93" rx="1.4" ry="3.3"/>
	<path class="st1" d="M129.1,120.3c0,0-6.2,2.8-15.2-0.4c0,0,5.8,11.3,17.4,9.7L129.1,120.3z"/>
	<path class="st1" d="M129,130.3c-10.3,0-15.5-10-15.6-10.1c-0.1-0.2,0-0.6,0.2-0.7c0.1-0.1,0.3-0.1,0.4,0c8.7,3,14.8,0.4,14.8,0.4
		c0.1-0.1,0.3-0.1,0.4,0c0.1,0.1,0.2,0.2,0.3,0.3l2.2,9.3c0.1,0.3-0.1,0.5-0.4,0.6c0,0,0,0-0.1,0C130.6,130.2,129.8,130.3,129,130.3
		z M115,120.9c1.8,2.7,7.1,9.3,15.7,8.3l-2-8.1C124.2,122.4,119.4,122.3,115,120.9z"/>
	<path class="st1" d="M124.3,118.1c-0.9,0-1.9-0.3-2.7-0.8c-4.9-2.7-5.2-10.6-5.2-11c0-0.2,0.1-0.3,0.2-0.4c0.1-0.1,0.3-0.1,0.4-0.1
		l12.5,2.1c0.3,0,0.4,0.3,0.4,0.5c-0.4,4.7-1.8,8-3.9,9.1C125.6,118,125,118.1,124.3,118.1z M117.5,107c0.2,1.9,1,7.5,4.7,9.5
		c1,0.7,2.3,0.8,3.5,0.3c1.7-0.9,2.9-3.8,3.3-7.9L117.5,107z"/>
	<path class="st2" d="M260.6,68.9c-0.9-0.4-1.9-0.3-2.7,0.2c0.1-3.3-2.6-6.1-5.7-7.2c-3.1-1.1-6.4-0.9-9.7-0.8
		c-3.3,0.1-6.7,0-9.6-1.6c-4.6-2.5-6.9-8.3-11.7-10.1c-3.9-1.5-8.5,0.2-11.2,3.5c-2.5,3.4-3.6,7.6-2.9,11.8
		c0.8,6.8,4.9,13.4,9.5,18.4c2.5,2.5,5.2,4.8,8.1,6.8l6.1,4.5c6.2,4.6,14.9,9.1,22.9,6.8c5.4-1.6,8.5-7.1,9.9-12.2
		c0.8-2.8,1.1-5.7,0.9-8.6c-0.2-2.7-0.3-6.9-1.6-9.3C262.5,70,261.6,69.2,260.6,68.9z"/>
	<path class="st1" d="M249.1,102.2c-6.9,0-13.7-3.9-18.6-7.5l-6.1-4.5c-2.9-2-5.7-4.3-8.2-6.9c-3.2-3.4-8.6-10.3-9.7-18.7
		c-0.7-4.3,0.4-8.7,3-12.2c2.9-3.6,7.8-5.1,11.8-3.6c2.8,1,4.7,3.3,6.6,5.4c1.4,1.9,3.2,3.5,5.2,4.7c2.8,1.5,6.3,1.6,9.3,1.5h0.8
		c3-0.1,6.2-0.2,9.1,0.9c2.9,1.1,5.7,3.5,6,6.9c0.8-0.2,1.6-0.2,2.4,0.1c1.1,0.4,2.1,1.3,2.7,2.3c1.1,2,1.3,5.3,1.5,8
		c0,0.5,0.1,1,0.1,1.5c0.2,3-0.1,6-1,8.8c-0.9,3-3.6,10.5-10.3,12.5C252.3,102,250.7,102.2,249.1,102.2z M218.2,49.3
		c-3,0.1-5.9,1.5-7.8,3.8c-2.4,3.3-3.5,7.4-2.8,11.4c0.7,5.9,4.2,12.5,9.4,18.1c2.5,2.5,5.2,4.8,8.1,6.8l6,4.5
		c5.9,4.3,14.5,9,22.5,6.7c6.2-1.8,8.8-8.8,9.6-11.8c0.8-2.7,1.1-5.6,0.9-8.5c0-0.5-0.1-1-0.1-1.6c-0.2-2.5-0.4-5.7-1.4-7.6
		c-0.5-0.9-1.2-1.5-2.1-1.9l0,0c-0.7-0.3-1.6-0.3-2.3,0.1c-0.2,0.1-0.4,0.1-0.5,0c-0.2-0.1-0.3-0.3-0.2-0.5c0.1-3-2.6-5.7-5.3-6.7
		c-2.8-1-5.8-0.9-8.8-0.8h-0.8c-3.2,0.1-6.8,0-9.8-1.6c-2.1-1.3-4-3-5.5-5c-1.9-2.2-3.7-4.2-6.2-5.1
		C220.1,49.5,219.2,49.3,218.2,49.3z"/>
	<path class="st2" d="M217.6,112.4l-2.4,18.7c0,0,1.8,9.9,13.4,9c6.9-0.6,13.2-4.3,17.2-10l5-31.5c0,0-7.5-5.8-2.2-23.3
		c-11-0.4-21.9-2.1-32.5-5.1c0,0-5.3,23.1-5.4,32S217.6,112.4,217.6,112.4z"/>
	<path class="st1" d="M227.2,140.6c-5.9,0.3-11.2-3.7-12.5-9.5c0-0.1,0-0.1,0-0.2l2.3-18.3c-1.6-0.5-7-2.8-6.9-10.6
		c0.1-8.8,5.2-31.1,5.4-32.1c0-0.1,0.1-0.3,0.2-0.3c0.1-0.1,0.3-0.1,0.4,0c10.6,3,21.4,4.7,32.4,5.1c0.2,0,0.3,0.1,0.4,0.2
		c0.1,0.1,0.1,0.3,0.1,0.4c-2.7,8.9-2,14.6-0.9,17.8c0.5,1.9,1.5,3.6,3,4.9c0.1,0.1,0.2,0.3,0.2,0.5l-5,31.5c0,0.1,0,0.1-0.1,0.2
		c-4,5.9-10.5,9.6-17.5,10.3C228.1,140.6,227.6,140.6,227.2,140.6z M215.7,131c0.2,0.9,2.3,9.4,12.8,8.5c6.7-0.6,12.9-4.2,16.7-9.7
		l4.9-31.1c-1.3-1.2-6.9-7.4-2.3-23c-10.6-0.5-21.2-2.2-31.5-5c-0.8,3.5-5.2,23.3-5.2,31.3c-0.1,8.3,6.5,9.8,6.5,9.8
		c0.3,0.1,0.4,0.3,0.4,0.6L215.7,131z"/>
	<path class="st2" d="M244.3,97c0.6-1.5,1.7-2.7,3.1-3.5c1.3-0.7,2.8-1.1,4.2-1.3c0.8-0.2,1.6-0.2,2.4,0c0.5,0.2,1.1,0.5,1.5,0.8
		c1.1,0.8,1.9,1.9,2.2,3.3c0.1,1.1,0,2.2-0.4,3.2c-0.3,1.1-0.8,2.2-1.4,3.3c-2.7,4.2-8.2,5.4-12.4,2.8c0,0-0.1,0-0.1-0.1"/>
	<path class="st1" d="M248.4,107.3c-1.8,0-3.6-0.5-5.2-1.5c-0.2-0.1-0.3-0.4-0.2-0.7c0.1-0.2,0.4-0.3,0.7-0.2c0,0,0,0,0,0
		c3.9,2.6,9.1,1.5,11.7-2.4c0,0,0-0.1,0.1-0.1c0.6-1,1.1-2,1.4-3.1c0.4-0.9,0.5-2,0.4-3c-0.3-1.2-1-2.2-2-3
		c-0.4-0.3-0.8-0.6-1.3-0.8c-0.7-0.2-1.5-0.2-2.2,0c-1.4,0.2-2.8,0.6-4.1,1.3c-1.3,0.7-2.3,1.9-2.9,3.3c-0.1,0.3-0.4,0.4-0.7,0.3
		c-0.3-0.1-0.4-0.4-0.3-0.7c0.7-1.6,1.8-2.9,3.3-3.7c1.4-0.7,2.9-1.2,4.4-1.4c0.9-0.2,1.8-0.2,2.6,0c0.6,0.2,1.2,0.5,1.7,0.9
		c1.2,0.9,2.1,2.1,2.4,3.6c0.2,1.2,0,2.3-0.4,3.5c-0.3,1.2-0.8,2.3-1.5,3.4c-1.4,2.1-3.5,3.6-6,4.2
		C249.8,107.3,249.1,107.3,248.4,107.3z"/>
	<path class="st1" d="M216,123c4.3-0.2,8.4-1.6,12-3.9c5.7-3.9,5.7-6.7,5.7-6.7s-8.6,3-15.7,0.4L216,123z"/>
	<path class="st1" d="M216,123.5c-0.3,0-0.5-0.2-0.5-0.5c0,0,0-0.1,0-0.1l2-10.3c0-0.1,0.1-0.3,0.3-0.3c0.1-0.1,0.3-0.1,0.4,0
		c6.8,2.6,15.2-0.4,15.3-0.4c0.2-0.1,0.3,0,0.5,0.1c0.1,0.1,0.2,0.3,0.2,0.4c0,0.1-0.1,3.1-5.9,7.2C224.6,122,220.4,123.4,216,123.5
		L216,123.5z M218.4,113.4l-1.7,9.1c4-0.3,7.8-1.6,11.1-3.8c3.6-2.5,4.9-4.5,5.3-5.6C230.6,113.8,224.1,115.3,218.4,113.4
		L218.4,113.4z"/>
	<path class="st2" d="M228.1,85.7c0,0-7.5,7.5-6.4,9.3c1.1,1.8,5.1,1.6,5.1,1.6"/>
	<path class="st1" d="M226.3,97.1c-1.2,0-4.1-0.2-5.1-1.8c-1.2-2,4.7-8.1,6.5-9.9c0.2-0.2,0.5-0.2,0.7,0c0.2,0.2,0.2,0.5,0,0.7l0,0
		c-3.9,3.9-6.9,7.9-6.4,8.7c0.8,1.2,3.6,1.4,4.7,1.3c0.3,0,0.5,0.2,0.5,0.5c0,0,0,0,0,0c0,0.3-0.2,0.5-0.5,0.5L226.3,97.1z"/>
	<path class="st2" d="M174.9,171.6l6.3-32.9l-21.7-4.2l-6.3,32.9c-1,5.3,2,10.6,7.1,12.5l-3.8,19.6l-10.8,6.8l21.7,4.2l-7.6-10.3
		l3.8-19.6C169.1,180.8,173.9,177,174.9,171.6z"/>
	<path class="st1" d="M167.5,211.1L167.5,211.1l-21.8-4.2c-0.3,0-0.5-0.3-0.4-0.6c0-0.2,0.1-0.3,0.2-0.4l10.6-6.7l3.6-19.1
		c-5.2-2-8.1-7.4-7.1-12.8l6.3-32.9c0-0.1,0.1-0.2,0.2-0.3c0.1-0.1,0.3-0.1,0.4-0.1l21.7,4.2c0.3,0.1,0.5,0.3,0.4,0.6l-6.3,32.9
		c-1,5.4-5.8,9.4-11.3,9.4l0,0l-3.6,19l7.4,10.1c0.1,0.2,0.1,0.4,0,0.6C167.8,211,167.6,211,167.5,211.1z M147.2,206.1l19.2,3.7
		l-6.8-9.3c-0.1-0.1-0.1-0.3-0.1-0.4l3.8-19.6c0-0.3,0.3-0.4,0.5-0.4c5.2,0.2,9.8-3.4,10.7-8.5l0,0l6.2-32.4l-20.7-4l-6.2,32.4
		c-1,5.1,1.9,10.2,6.8,11.9c0.2,0.1,0.4,0.3,0.3,0.6l-3.8,19.6c0,0.1-0.1,0.3-0.2,0.3L147.2,206.1z"/>
	<path class="st3" d="M157.4,157.9l-1.8,9.4c-1.1,4.7,1.9,9.4,6.6,10.5c4.7,1.1,9.4-1.9,10.5-6.6c0-0.2,0.1-0.4,0.1-0.6l1.5-8
		c0.3-1.4,1.2-3.5,0-4.6c-0.6-0.6-1.7-0.6-2.3-1.2c-0.7-0.6-0.6-1.4-1.4-1.8c-0.6-0.2-1.3-0.1-1.8,0.3c-0.5,0.4-1,0.8-1.4,1.2
		c-1.7,1.2-3.7,1.7-5.7,1.6C161.4,158.1,157.4,157.7,157.4,157.9z"/>
	<path class="st3" d="M175.7,151c-0.5-3.6-4.5,0.2-3,2.3c0.2,0.3,0.5,0.5,0.8,0.6c0.4,0.1,0.8,0,1.1-0.3
		C175.4,152.9,175.8,152,175.7,151z"/>
	<path class="st2" d="M208.2,167.4l-6.4-32.9l-21.7,4.2l6.4,32.9c1,5.3,5.8,9.1,11.3,8.9l3.8,19.6l-7.5,10.3l21.7-4.2l-10.9-6.7
		l-3.8-19.6C206.3,178.1,209.3,172.8,208.2,167.4z"/>
	<path class="st1" d="M194.1,211.1c-0.2,0-0.3-0.1-0.4-0.2c-0.1-0.2-0.1-0.4,0-0.6l7.4-10.1l-3.7-19l0,0c-5.5,0-10.3-3.9-11.3-9.3
		l-6.4-32.9c0-0.3,0.1-0.5,0.4-0.6l21.7-4.2c0.1,0,0.3,0,0.4,0.1c0.1,0.1,0.2,0.2,0.2,0.3l6.4,32.9c1.1,5.4-1.9,10.9-7,12.9l3.7,19
		l10.7,6.6c0.2,0.1,0.3,0.5,0.2,0.7c-0.1,0.1-0.2,0.2-0.3,0.2L194.1,211.1L194.1,211.1z M197.8,180.1c0.2,0,0.5,0.2,0.5,0.4
		l3.8,19.6c0,0.1,0,0.3-0.1,0.4l-6.8,9.3l19.1-3.7l-9.7-6.1c-0.1-0.1-0.2-0.2-0.2-0.3l-3.8-19.6c0-0.2,0.1-0.5,0.3-0.6
		c4.9-1.7,7.8-6.8,6.8-11.9l0,0l-6.3-32.4l-20.7,4.1l6.3,32.4C188,176.7,192.6,180.3,197.8,180.1L197.8,180.1z"/>
	<path class="st3" d="M204.1,157.9L204.1,157.9c-0.5-0.5-2.5-0.1-3.2-0.1c-1.3-0.1-2.6-0.5-3.9-1c-1-0.6-2.2-0.9-3.3-1
		c-1,0.1-2,0.7-3,0.5c-0.7-0.2-1.3-0.6-1.9-1c-0.6-0.4-1.4-0.4-2,0c-0.2,0.2-0.4,0.5-0.5,0.8c-0.6,1.4,0.1,3,0.4,4.4l0.8,4.3l1.2,6
		c0.8,4.8,5.4,8,10.2,7.1c4.8-0.8,8-5.4,7.1-10.2c0-0.1,0-0.2-0.1-0.3c-0.4-2.2-0.9-4.5-1.3-6.7
		C204.6,159.6,204.4,158.7,204.1,157.9z"/>
	<path class="st2" d="M74.7,141.4c0,0-11.6,5.3-14.6,17.9c-6.1,24.8-0.5,91.8,3.8,97.4c4.4,5.5,9.3,2.4,25-3.2
		c16.9-6.1,72.5-42.3,72.5-42.3s10.9-7.3,11.3-10.2c0.4-2.8-1.2-3.2-1.2-3.2s5.1-4.4,2.8-6.7c0,0,2.4-4.6-0.2-7.3
		c-1.1-1.2,2.7-6.8-1-7.1c-0.8,0-1.6,0.3-2.3,0.8c-3.2,1.8-10.1,2.3-11.6,3.2c-0.1-0.8,1.2-5.5,0-5.8c-4.5-1.1-13.4,20.2-13.4,20.2
		s-56,19.3-56,18.5C89.7,212.7,86.7,154.2,74.7,141.4z"/>
	<path class="st1" d="M69.4,260c-2.4,0.1-4.6-1.1-5.9-3c-4.4-5.6-10.2-72.2-3.9-97.8c3-12.6,14.8-18.2,14.9-18.2
		c0.2-0.1,0.4,0,0.6,0.1C86.7,153.5,89.9,207,90.2,213c4.2-1,34.6-11.3,55.1-18.3c0.4-1,2.5-5.8,5-10.4c3.9-7.2,6.8-10.5,9-9.9
		c1.3,0.3,0.9,2.7,0.6,4.7c0,0.3-0.1,0.5-0.1,0.8c0.8-0.2,1.9-0.4,3.2-0.7c2.6-0.5,5.8-1.1,7.6-2.2c0.8-0.5,1.7-0.8,2.6-0.8
		c0.7,0,1.3,0.3,1.7,0.9c0.7,1,0.3,2.7-0.1,4.1c-0.2,0.8-0.5,2-0.3,2.3c2.4,2.6,0.9,6.5,0.4,7.6c0.4,0.5,0.6,1.1,0.5,1.7
		c-0.1,1.9-2.1,4.1-3,5c0.5,0.5,1.1,1.4,0.8,3.3c-0.4,2.9-10.4,9.7-11.5,10.5C161.1,212,105.8,248,89,254c-2.4,0.8-4.5,1.6-6.4,2.3
		C76.6,258.5,72.5,260,69.4,260z M74.5,142c-1.9,1-11.3,6.4-14,17.4c-6,24.6-0.5,91.5,3.7,96.9c3.5,4.4,7.4,2.9,18-1
		c1.9-0.7,4.1-1.5,6.4-2.3c16.6-6,71.9-41.9,72.4-42.2c4.1-2.8,10.8-7.9,11.1-9.8c0.3-2.2-0.8-2.6-0.8-2.6c-0.2-0.1-0.3-0.2-0.4-0.4
		c0-0.2,0-0.4,0.2-0.5c0.9-0.7,3.2-3,3.2-4.8c0-0.5-0.1-0.9-0.5-1.2c-0.2-0.2-0.2-0.4-0.1-0.6c0,0,2.2-4.3-0.1-6.7
		c-0.6-0.7-0.3-1.9,0.1-3.2c0.4-1.4,0.7-2.6,0.3-3.3c-0.3-0.3-0.6-0.5-1-0.4c-0.7,0-1.4,0.3-2,0.7c-2,1.1-5.3,1.8-7.9,2.3
		c-1.3,0.2-2.5,0.5-3.7,0.9c-0.1,0.1-0.3,0.1-0.5,0c-0.1-0.1-0.2-0.2-0.3-0.4c0-0.6,0-1.2,0.2-1.8c0.2-0.9,0.6-3.3,0.2-3.6
		c-3-0.7-9.5,11.8-12.8,20c-0.1,0.1-0.2,0.2-0.3,0.3c-55.5,19.1-56.2,18.6-56.4,18.4c-0.1-0.1-0.2-0.3-0.2-0.4
		C89.2,213,86.3,155.3,74.5,142z"/>
	<path class="st1" d="M72.4,219.2c-0.2,0-0.4-0.2-0.5-0.4c-0.1-0.3,0.1-0.5,0.3-0.6c0,0,0,0,0,0c1.4-0.4,17.1-5.1,17.3-5.1
		c0.3-0.1,0.6,0,0.7,0.3c0.1,0.3,0,0.6-0.3,0.7c0,0-0.1,0-0.1,0C89.1,214.2,73.9,218.8,72.4,219.2L72.4,219.2z"/>
	<path class="st2" d="M307.1,166.4c0,0-3.2,48.3-19.7,62.6c-11.5,9.9-20.1,2.1-31.8-3.6c-8-4-15.5-8.7-22.6-14
		c-2.7-2.1-5.6-4.1-8.6-5.8c-4.9-2.7-10.3-4.4-16.4-3.7c-3.5,0.4-10.6,3.2-13.2-0.4c-0.8-1.1-0.7-2.6,0.3-3.5
		c-0.9-0.5-1.7-1.2-2.2-2.1c-0.6-0.9-0.3-2.1,0.6-2.7c-1.6-1-2.2-3-1.3-4.7c-3-0.8-2-4,0.3-4.7c5.9-1.8,12-3.1,18.1-4
		c0,0,16,3,23.2,6.1s35,12.4,35,12.4l5.9-35"/>
	<path class="st1" d="M276.2,234.2c-5.2,0-10.1-2.7-15.4-5.6c-1.7-0.9-3.5-1.9-5.4-2.8c-8-4-15.6-8.7-22.7-14.1
		c-2.7-2.1-5.6-4-8.6-5.8c-5.7-3.1-10.8-4.3-16.1-3.6c-0.8,0.1-1.7,0.3-2.7,0.5c-3.7,0.8-8.7,1.9-10.9-1.1c-0.8-1.1-0.9-2.6-0.1-3.7
		c-0.8-0.5-1.4-1.2-1.9-2c-0.5-0.9-0.4-2.1,0.2-2.9c-0.6-0.5-1-1.2-1.3-2c-0.2-0.8-0.2-1.7,0.1-2.5c-1-0.3-1.7-1.2-1.7-2.3
		c0.1-1.5,1.2-2.8,2.6-3.2c5.9-1.8,12-3.2,18.2-4h0.1c0.2,0,16.1,3.1,23.3,6.1c6.5,2.7,30.4,10.8,34.4,12.2l5.8-34.4
		c0-0.3,0.3-0.5,0.6-0.4c0.3,0,0.5,0.3,0.4,0.6l0,0l-5.9,35c0,0.1-0.1,0.3-0.2,0.3c-0.1,0.1-0.3,0.1-0.4,0.1
		c-0.3-0.1-27.9-9.4-35.1-12.4c-6.8-2.8-21.7-5.8-23-6c-6.1,0.8-12.1,2.2-17.9,4c-1,0.3-1.8,1.2-1.9,2.2c0,0.7,0.6,1.3,1.5,1.5
		c0.2,0,0.3,0.1,0.3,0.3c0.1,0.1,0.1,0.3,0,0.4c-0.8,1.4-0.3,3.2,1.2,4.1c0.2,0.1,0.3,0.3,0.3,0.4c0,0.2-0.1,0.4-0.3,0.4
		c-0.6,0.5-0.8,1.3-0.4,2c0.5,0.8,1.2,1.5,2,1.9c0.2,0.2,0.3,0.5,0.1,0.7c0,0.1-0.1,0.1-0.1,0.1c-0.7,0.8-0.8,2-0.2,2.8
		c1.8,2.5,6.3,1.5,9.9,0.7c1-0.2,2-0.5,2.8-0.6c5.5-0.7,10.9,0.5,16.7,3.8c3,1.7,5.9,3.7,8.7,5.8c7.1,5.4,14.6,10,22.5,14
		c1.9,0.9,3.7,1.9,5.4,2.9c9.1,5,16.4,8.9,25.8,0.8c16.2-14,19.5-61.8,19.5-62.2c0-0.3,0.3-0.5,0.5-0.5c0,0,0,0,0,0
		c0.3,0,0.5,0.3,0.5,0.5c0,0,0,0,0,0c-0.7,8.7-1.8,17.4-3.6,26c-3.8,18.5-9.3,30.9-16.2,36.9C283.6,232.9,279.8,234.2,276.2,234.2z"
		/>
	<path class="st2" d="M277,125.9l7,15.4c0.3,0.8,0.8,1.5,1.4,2c0.7,0.5,1.7,0.4,2.2-0.2c0.3-0.6,0.3-1.3,0-1.9
		c-0.5-1.6-1.2-3.2-1.9-4.8l6.6,8.3c1,1.2,1.9,2.9,3.7,3c0.3,0,0.5,0,0.7-0.1c0.4-0.3,0.6-0.9,0.5-1.4c-0.1-0.6-0.3-1.1-0.6-1.6
		c0.5,0.4,1.1,0.7,1.7,0.9c0.8,0.2,1.9-0.2,1.6-1.1c-0.4-1-0.9-1.9-1.5-2.7c0.4,0.6,1,1.1,1.7,1.3c0.6,0.1,1.3-0.3,1.4-1
		c0-0.2,0-0.4-0.1-0.6c-0.2-0.5-0.4-0.9-0.7-1.3c0.4,0.4,0.9,0.9,1.5,0.7c0.5-0.2,0.8-0.7,0.8-1.2c-0.1-0.5-0.2-1-0.5-1.4
		c-0.9-1.5-4.3-6.7-5.1-7.9c-1.4-2.3-3.1-4.5-5-6.4c-3.2-3.2-7-5.9-11.1-7.9"/>
	<path class="st1" d="M296.1,148.3h-0.2c-1.7-0.1-2.7-1.4-3.5-2.6l-0.5-0.6l-4.3-5.4c0.2,0.4,0.3,0.9,0.5,1.3c0.3,0.7,0.3,1.6,0,2.3
		c-0.3,0.4-0.7,0.7-1.1,0.8c-0.6,0.1-1.3,0-1.8-0.4c-0.7-0.6-1.3-1.4-1.6-2.3l-7-15.5c-0.1-0.2,0-0.5,0.2-0.7c0,0,0,0,0,0
		c0.3-0.1,0.6,0,0.7,0.3l7,15.4c0.2,0.7,0.7,1.4,1.2,1.8c0.3,0.2,0.7,0.3,1,0.2c0.2,0,0.4-0.1,0.5-0.3c0.2-0.5,0.2-1-0.1-1.5
		c-0.5-1.6-1.1-3.2-1.9-4.7c-0.1-0.2,0-0.5,0.2-0.6c0.2-0.1,0.5-0.1,0.7,0.1l6.6,8.3c0.2,0.2,0.3,0.4,0.5,0.7
		c0.8,1.1,1.6,2.1,2.8,2.2c0.2,0,0.3,0,0.5-0.1c0.2-0.1,0.3-0.5,0.2-0.9c-0.1-0.5-0.2-1-0.5-1.4c-0.2-0.2-0.1-0.5,0.1-0.7
		c0.2-0.1,0.4-0.1,0.6,0c0.4,0.4,1,0.7,1.5,0.8c0.4,0.1,0.7,0,1-0.2c0,0,0.1-0.1,0-0.3c-0.3-0.9-0.8-1.8-1.5-2.5l0,0
		c-0.2-0.2-0.1-0.5,0.1-0.7c0,0,0,0,0,0c0.2-0.2,0.5-0.1,0.7,0.1c0.3,0.5,0.8,0.9,1.4,1.2c0.2,0.1,0.4,0,0.5-0.1
		c0.2-0.2,0.3-0.5,0.2-0.8c-0.1-0.4-0.3-0.8-0.6-1.1c-0.2-0.2-0.1-0.5,0.1-0.7c0.2-0.2,0.5-0.2,0.7,0c0.3,0.3,0.7,0.6,1,0.6
		s0.4-0.4,0.4-0.7c-0.1-0.4-0.2-0.8-0.5-1.2c-0.6-1-2.4-3.8-3.7-5.8l-1.4-2.1c-1.4-2.3-3.1-4.4-4.9-6.4c-3.2-3.2-6.9-5.9-10.9-7.8
		c-0.2-0.1-0.3-0.4-0.2-0.7c0.1-0.2,0.4-0.3,0.7-0.2c4.1,2,7.9,4.7,11.2,8c1.9,2,3.6,4.2,5.1,6.5c0.2,0.4,0.8,1.2,1.4,2.1
		c1.3,2,3.1,4.8,3.7,5.8c0.3,0.5,0.6,1.1,0.6,1.7c0.1,0.8-0.4,1.5-1.2,1.7h-0.3c0.1,0.6-0.1,1.2-0.5,1.6c-0.3,0.3-0.8,0.5-1.3,0.5
		c0.1,0.2,0.2,0.4,0.2,0.6c0.2,0.4,0.1,0.9-0.3,1.3c-0.5,0.5-1.3,0.7-2,0.5c-0.2-0.1-0.4-0.1-0.6-0.2c0,0.1,0.1,0.2,0.1,0.4
		c0.2,0.7-0.1,1.5-0.7,1.9C296.7,148.2,296.4,148.3,296.1,148.3z"/>
	<path class="st1" d="M224,106.3c-2,0.1-4-0.6-5.5-2c-3-3.2-2.3-8.7-2.3-9c0-0.3,0.3-0.5,0.6-0.4s0.5,0.3,0.4,0.6l0,0
		c0,0-0.7,5.3,2,8.1c1.4,1.4,3.4,2,6.1,1.7c8.3-0.9,12.1-13.2,12.2-13.3c0.1-0.3,0.4-0.4,0.7-0.4c0.3,0.1,0.4,0.4,0.4,0.7
		c-0.2,0.5-4,13-13,14C225.1,106.3,224.6,106.3,224,106.3z"/>
	<path class="st2" d="M218.9,81.7c0,0,1.3-2.5,3.3-2.7c1.9-0.1,2.7,2.7,2.7,2.7"/>
	<path class="st1" d="M218.9,82.2c-0.1,0-0.2,0-0.2-0.1c-0.2-0.1-0.3-0.4-0.2-0.7c0,0,0,0,0,0c0.1-0.1,1.5-2.8,3.7-2.9
		c2.2-0.2,3.2,2.9,3.2,3c0.1,0.3-0.1,0.5-0.4,0.6c0,0,0,0,0,0c-0.3,0.1-0.5-0.1-0.6-0.4c0,0-0.7-2.4-2.1-2.3
		c-1.6,0.1-2.9,2.4-2.9,2.4C219.3,82.1,219.1,82.2,218.9,82.2z"/>
	<path class="st2" d="M230.7,84.4c0,0,1.3-2.5,3.3-2.7s2.7,2.7,2.7,2.7"/>
	<path class="st1" d="M230.7,84.9c-0.1,0-0.2,0-0.2-0.1c-0.2-0.1-0.3-0.4-0.2-0.7c0.1-0.1,1.5-2.8,3.7-2.9c2.2-0.2,3.2,2.9,3.2,3
		c0.1,0.3-0.1,0.6-0.4,0.6c-0.3,0.1-0.6-0.1-0.6-0.4c0,0-0.6-2.4-2.1-2.3c-1.5,0.1-2.8,2.4-2.9,2.4C231,84.8,230.9,84.9,230.7,84.9z
		"/>
	<path class="st3" d="M44.2,175.8c-0.3-0.2-0.5-0.6-0.5-0.9c-0.1-0.2-0.1-0.4-0.2-0.6c0-0.1,0-0.2,0-0.2v-0.5c0-1-0.1-2-0.3-3
		c-0.6-1.8-2.8-4.1-4.8-2.6c-0.5,0.3-0.7,0.9-0.4,1.4c0.3,0.5,0.9,0.7,1.4,0.4c0.1,0,0.1-0.1,0.2-0.1l0,0h0.2l0.1,0.1l0.2,0.1l0,0
		l0,0l0.2,0.2c0.1,0.1,0.1,0.1,0.2,0.2l0.1,0.2c0.1,0.2,0.2,0.3,0.3,0.5l0.1,0.2c0,0.1,0.1,0.2,0.1,0.3c0,0.1,0,0.2,0,0.2v0.3
		c0.1,1.9,0,4,1.5,5.4c0.4,0.4,1.1,0.4,1.5,0s0.4-1.1,0-1.5L44.2,175.8z"/>
	<path class="st3" d="M314.8,104.1c-0.1-0.5-0.7-0.9-1.2-0.8c0,0-0.1,0-0.1,0c-2.4,0.9-5,2-6.7,4.1c-0.7,1-1.3,2-1.8,3.1
		c-0.4,0.9-0.9,1.8-1.7,2c-1.3,0.4-0.7,2.5,0.6,2c2.5-0.8,2.9-3.4,4.1-5.3c1.2-1.9,3.9-3,6.1-3.9
		C314.6,105.2,314.9,104.7,314.8,104.1z"/>
	<path class="st3" d="M104.4,41c-2.5-1.2-5.3-1.8-8.1-1.5c-0.5,0-1,0.5-1,1c0,0.6,0.5,1,1,1c2.4-0.2,4.9,0.2,7.1,1.2
		c0.5,0.3,1.1,0.1,1.4-0.4C105,41.9,104.8,41.3,104.4,41z"/>
	<path class="st3" d="M287,58.3c-2.3,0.6-3.2,3-3.4,5.2c-0.1,2.3,1,5.1-0.3,7.1c-0.7,1.1,1.1,2.2,1.8,1c1.4-2.2,0.8-4.7,0.6-7.1
		c-0.1-1.4,0.1-3.7,1.8-4.2c0.5-0.2,0.9-0.7,0.7-1.3C288.1,58.5,287.5,58.2,287,58.3L287,58.3z"/>
	<path class="st3" d="M162.5,47.1c-0.2-0.5-0.5-1.1-0.9-1.5c-0.1-0.1-0.1-0.2-0.2-0.3l0,0c0.5-0.2,0.7-0.7,0.6-1.2
		c-0.2-0.6-0.7-0.9-1.3-0.7c-0.7,0.2-1.3,0.7-1.4,1.5c-0.1,0.8,0.1,1.5,0.6,2.1c0.4,0.5,0.8,0.9,0.5,1.6c-0.3,0.6-0.7,1.1-1.3,1.5
		c-1,0.9-2.2,2.1-2,3.6c0,1.4,1.2,2.5,2.6,2.4c0.1,0,0.2,0,0.2,0c0.5-0.1,0.9-0.7,0.8-1.2c0,0,0-0.1,0-0.1c-0.2-0.6-0.7-0.9-1.3-0.7
		c0.2,0,0.1,0,0.1,0c-0.1-0.1-0.1-0.2-0.2-0.3c-0.1-0.3-0.1-0.6,0.1-0.9c0.5-0.9,1.5-1.5,2.2-2.3C162.4,49.6,162.8,48.3,162.5,47.1z
		"/>
	<path class="st3" d="M55.8,63.3c-0.6-0.8-1.1-1.7-1.6-2.6c-0.6-1.6-0.1-3.4,1.2-4.5c0.5-0.3,0.6-0.9,0.4-1.4
		c-0.3-0.5-0.9-0.7-1.4-0.4c0,0,0,0-0.1,0c-1.8,1.4-2.7,3.6-2.4,5.8c0.2,1.1,0.6,2.1,1.3,3c0.5,0.8,1.4,1.7,1,2.6
		c-0.2,0.5,0.1,1.1,0.7,1.3c0,0,0,0,0.1,0c0.6,0.1,1.1-0.2,1.3-0.8C56.6,65.3,56.4,64.2,55.8,63.3z"/>
	<path class="st3" d="M54.6,96.5c-0.5,0-0.9,0-1.3-0.1c-0.2,0-0.5-0.1-0.7-0.2c-0.2-0.1-0.3-0.1-0.4-0.2c-0.1,0-0.1,0,0,0
		c0,0-0.1-0.1-0.1-0.1c0,0-0.2-0.3-0.2-0.2c-0.1-0.2-0.2-0.4-0.2-0.6c-0.1-0.6-0.3-1.1-0.6-1.6c-1.4-1.9-4.1-1.1-5.7-0.2
		c-0.5,0.3-0.7,0.9-0.4,1.4c0.3,0.5,0.9,0.7,1.4,0.4c0.4-0.2,0.7-0.4,1.1-0.5c0.4-0.1,0.7-0.2,1.1-0.2h0.2h0.2H49l0.1,0.1
		c0.1,0.1,0.1,0.1,0.1,0c0,0.1,0.1,0.1,0.1,0.2c0.1,0.3,0.2,0.6,0.2,0.8c0.5,2.3,2.9,2.9,5,2.9C55.9,98.6,55.9,96.5,54.6,96.5z"/>
	<path class="st3" d="M193.3,86.6l-5.8-1.3c-1.2-3.1-4.7-4.6-7.8-3.4c-0.1,0-0.1,0-0.2,0.1c-0.5,0.3-0.7,0.9-0.4,1.4
		c0,0,0,0.1,0,0.1c0.3,0.5,0.9,0.7,1.4,0.4c2-0.8,4.2,0.2,4.9,2.2c0.1,0.1,0.1,0.3,0.1,0.4c0.1,0.4,0.4,0.6,0.7,0.7l6.4,1.4
		C194.1,88.9,194.6,86.9,193.3,86.6z"/>
	<path class="st3" d="M301.5,211.8l-1.5,0.3c-1.7-3-5.2-4.5-8.5-3.7c-0.6,0.2-0.9,0.7-0.7,1.3c0.2,0.6,0.7,0.9,1.3,0.7
		c2.6-0.6,5.3,0.7,6.4,3.2c0.2,0.5,0.7,0.9,1.3,0.7l2.4-0.5C303.4,213.6,302.8,211.5,301.5,211.8z"/>
	<path class="st3" d="M49.5,213.3c-0.8-0.8-2.1-0.8-3,0c-0.5,0.5-0.9,1.3-0.8,2c-1.3,0-2.6-0.2-3.8-0.6c-0.6-0.2-1.1,0.2-1.3,0.7
		c-0.2,0.6,0.2,1.1,0.7,1.3c1.8,0.6,3.6,0.8,5.5,0.6c0.5-0.1,1.1-0.4,1-1c0-0.3,0-0.6,0-0.9c0-0.1,0-0.1,0-0.2c0,0,0-0.1,0-0.1
		c0-0.1,0-0.1,0.1-0.2l0,0c0,0.1,0,0,0,0l0,0l0,0h0.1c0.4,0.4,1,0.4,1.4,0c0,0,0,0,0,0c0.5-0.4,0.6-1,0.2-1.5
		C49.5,213.4,49.5,213.3,49.5,213.3z"/>
	<path class="st3" d="M247.3,34.4c-1.1,0.7-2.4,0.2-3.5-0.2c-1.1-0.5-2.2-1-3.3-1.3c-2.1-0.4-4.7,0-5.3,2.4
		c-0.2,0.6,0.2,1.1,0.7,1.3c0.6,0.2,1.1-0.2,1.3-0.7c0.2-0.6,0.7-1,1.3-1c0.9-0.1,1.8,0,2.6,0.4c2.3,0.9,4.8,2.4,7.2,0.9
		C249.6,35.5,248.5,33.7,247.3,34.4z"/>
	<path class="st3" d="M189.2,46.1c0-0.1-0.1-0.2-0.2-0.3l-0.2-0.1c-0.2-0.1-0.3-0.1-0.5-0.1H188c-0.2,0-0.3,0.1-0.5,0.3l-0.6,0.6
		c-0.1,0.1-0.2,0.2-0.2,0.3c-0.1,0.1-0.1,0.3-0.1,0.4c0,0.1,0,0.3,0.1,0.4c0,0.1,0.1,0.2,0.2,0.3l0.2,0.2c0.2,0.1,0.3,0.1,0.5,0.1
		h0.3c0.2,0,0.3-0.1,0.5-0.3l0.6-0.6c0.1-0.1,0.2-0.2,0.2-0.3c0.1-0.1,0.1-0.3,0.1-0.4C189.4,46.4,189.3,46.2,189.2,46.1z"/>
	<path class="st3" d="M142.3,21.1c0-0.1-0.1-0.2-0.2-0.3c-0.1-0.1-0.2-0.2-0.3-0.2c-0.1-0.1-0.3-0.1-0.4-0.1h-0.3
		c-0.2,0-0.3,0.1-0.5,0.3l-0.2,0.2c-0.1,0.2-0.2,0.3-0.2,0.5v0.6c0,0.1,0,0.3,0.1,0.4c0,0.1,0.1,0.2,0.2,0.3
		c0.1,0.1,0.2,0.2,0.3,0.2c0.1,0.1,0.3,0.1,0.4,0.1h0.3c0.2,0,0.3-0.1,0.5-0.3l0.2-0.2c0.1-0.2,0.1-0.3,0.1-0.5v-0.6
		C142.4,21.4,142.4,21.2,142.3,21.1z"/>
	<path class="st3" d="M322.4,138.9c0-0.2-0.1-0.3-0.3-0.5l-0.2-0.2c-0.2-0.1-0.3-0.1-0.5-0.1h-0.6c-0.1,0-0.3,0-0.4,0.1
		c-0.1,0-0.2,0.1-0.3,0.2c-0.1,0.1-0.2,0.2-0.2,0.3c-0.1,0.1-0.1,0.3-0.1,0.4v0.3c0,0.2,0.1,0.3,0.3,0.5l0.2,0.2
		c0.2,0.1,0.3,0.1,0.5,0.1h0.6c0.1,0,0.3,0,0.4-0.1c0.1,0,0.2-0.1,0.3-0.2c0.1-0.1,0.2-0.2,0.2-0.3c0.1-0.1,0.1-0.3,0.1-0.4V138.9z"
		/>
	<path class="st3" d="M171.7,95.3c-0.6,0-1.1,0.5-1.1,1.1s0.5,1.1,1.1,1.1c0.6,0,1.1-0.5,1.1-1.1S172.2,95.3,171.7,95.3z"/>
	<path class="st3" d="M67.7,79.3c-0.6,0-1.1,0.5-1.1,1.1c0,0.6,0.5,1.1,1.1,1.1c0.6,0,1.1-0.5,1.1-1.1
		C68.7,79.8,68.3,79.3,67.7,79.3z"/>
	<path class="st3" d="M37.7,118.6c-0.1-0.3-0.3-0.5-0.6-0.6c-0.1-0.1-0.3-0.1-0.4-0.1c-0.3,0-0.5,0.1-0.7,0.3
		c-0.2,0.2-0.3,0.5-0.3,0.8v1.2c0,0.1,0,0.3,0.1,0.4c0,0.1,0.1,0.3,0.2,0.3c0.1,0.1,0.2,0.2,0.3,0.2c0.1,0.1,0.3,0.1,0.4,0.1
		c0.3,0,0.5-0.1,0.8-0.3c0.2-0.2,0.3-0.5,0.3-0.8V119C37.8,118.8,37.8,118.7,37.7,118.6z"/>
</g>
</svg>
